<svg width="64" height="64" viewBox="0 0 64 64" fill="none" xmlns="http://www.w3.org/2000/svg">
    <path d="M63.8265 32.0006C63.8265 49.5807 49.5754 63.8322 31.9955 63.8322C14.4154 63.8322 0.164062 49.5807 0.164062 32.0006C0.164062 14.4207 14.4154 0.169434 31.9955 0.169434C49.5752 0.169434 63.8265 14.4207 63.8265 32.0006Z"
          fill="#1A1A1A"/>
    <path d="M31.8936 17.2307L31.697 17.899V37.2905L31.8936 37.4868L40.895 32.1661L31.8936 17.2307Z" fill="white"/>
    <path d="M31.8937 17.2307L22.8923 32.1661L31.8937 37.4868V28.0748V17.2307Z" fill="white"/>
    <path d="M31.8935 40.4154L31.7827 40.5505V47.4581L31.8935 47.7817L40.9002 35.0974L31.8935 40.4154Z" fill="white"/>
    <path d="M31.8937 47.7818V40.4154L22.8923 35.0974L31.8937 47.7818Z" fill="white"/>
    <path d="M31.8936 37.4867L40.8947 32.1662L31.8936 28.0748V37.4867Z" fill="white"/>
    <path d="M22.8923 32.166L31.8935 37.4867V28.0747L22.8923 32.166Z" fill="white"/>
</svg>
