<svg width="64" height="64" viewBox="0 0 64 64" fill="none" xmlns="http://www.w3.org/2000/svg">
    <circle cx="32" cy="32" r="32" fill="#1A1A1A"/>
    <g clip-path="url(#clip0_1_3500)">
        <path d="M21.1987 38.0797C21.3948 37.8836 21.661 37.7732 21.9387 37.7727H47.4754C47.5789 37.7726 47.6802 37.8031 47.7663 37.8604C47.8524 37.9176 47.9196 37.9991 47.9592 38.0945C47.9988 38.1899 48.0091 38.2948 47.9888 38.396C47.9685 38.4973 47.9184 38.5902 47.8451 38.663L42.8008 43.6917C42.7035 43.7885 42.5882 43.8653 42.4612 43.9176C42.3342 43.97 42.1981 43.9969 42.0607 43.9968H16.5241C16.4212 43.9962 16.3209 43.9654 16.2355 43.9082C16.1502 43.8511 16.0836 43.7701 16.0441 43.6755C16.0046 43.5809 15.9939 43.4767 16.0134 43.3761C16.0329 43.2755 16.0817 43.1828 16.1537 43.1096L21.1987 38.0797Z"
              fill="url(#paint0_linear_1_3500)"/>
        <path d="M21.1987 19.3045C21.3969 19.1119 21.6619 19.0028 21.9387 19H47.4754C47.5789 18.9999 47.6802 19.0304 47.7663 19.0876C47.8524 19.1449 47.9196 19.2264 47.9592 19.3218C47.9988 19.4172 48.0091 19.5221 47.9888 19.6233C47.9685 19.7246 47.9184 19.8175 47.8451 19.8903L42.8008 24.919C42.7035 25.0158 42.5882 25.0926 42.4612 25.1449C42.3342 25.1973 42.1981 25.2242 42.0607 25.2241H16.5241C16.4212 25.2235 16.3209 25.1927 16.2355 25.1355C16.1502 25.0784 16.0836 24.9974 16.0441 24.9028C16.0046 24.8082 15.9939 24.704 16.0134 24.6034C16.0329 24.5028 16.0817 24.4101 16.1537 24.3369L21.1987 19.3045Z"
              fill="url(#paint1_linear_1_3500)"/>
        <path d="M42.8012 28.6328C42.704 28.536 42.5886 28.4592 42.4616 28.4068C42.3346 28.3545 42.1985 28.3276 42.0611 28.3276H16.5245C16.421 28.3277 16.3199 28.3583 16.2339 28.4156C16.1478 28.4728 16.0808 28.5543 16.0411 28.6495C16.0015 28.7448 15.9911 28.8497 16.0112 28.9508C16.0313 29.052 16.0811 29.145 16.1541 29.218L21.1991 34.2466C21.2963 34.3434 21.4117 34.4202 21.5387 34.4726C21.6657 34.525 21.8017 34.5519 21.9392 34.5517H47.4758C47.5793 34.5519 47.6806 34.5214 47.7667 34.4641C47.8529 34.4068 47.92 34.3253 47.9596 34.2299C47.9992 34.1346 48.0095 34.0296 47.9892 33.9284C47.9689 33.8272 47.9189 33.7343 47.8455 33.6614L42.8012 28.6328Z"
              fill="url(#paint2_linear_1_3500)"/>
    </g>
    <defs>
        <linearGradient id="paint0_linear_1_3500" x1="45.036" y1="15.9956" x2="27.4488" y2="49.7862"
                        gradientUnits="userSpaceOnUse">
            <stop stop-color="#00FFA3"/>
            <stop offset="1" stop-color="#DC1FFF"/>
        </linearGradient>
        <linearGradient id="paint1_linear_1_3500" x1="37.3086" y1="11.9741" x2="19.7219" y2="45.7654"
                        gradientUnits="userSpaceOnUse">
            <stop stop-color="#00FFA3"/>
            <stop offset="1" stop-color="#DC1FFF"/>
        </linearGradient>
        <linearGradient id="paint2_linear_1_3500" x1="41.1479" y1="13.972" x2="23.5612" y2="47.7632"
                        gradientUnits="userSpaceOnUse">
            <stop stop-color="#00FFA3"/>
            <stop offset="1" stop-color="#DC1FFF"/>
        </linearGradient>
        <clipPath id="clip0_1_3500">
            <rect width="32" height="25" fill="white" transform="translate(16 19)"/>
        </clipPath>
    </defs>
</svg>
