<svg width="64" height="64" viewBox="0 0 64 64" fill="none" xmlns="http://www.w3.org/2000/svg">
    <circle cx="32" cy="32" r="32" fill="#1A1A1A"/>
    <path fill-rule="evenodd" clip-rule="evenodd"
          d="M47.5207 25.4252L46.709 24.9359L46.7083 24.9355L46.7082 24.9354L46.7069 24.9346C45.4435 24.1733 44.1263 23.3795 42.8326 22.5908C42.7978 22.5683 42.763 22.5458 42.7195 22.5233C42.5456 22.4108 42.3455 22.2909 42.102 22.2234L42.0846 22.2159C38.2436 21.4154 34.3446 20.5962 30.5463 19.7981L30.5452 19.7979L30.5444 19.7977L29.4554 19.569C27.5769 19.1753 25.7005 18.7817 23.8241 18.3881C21.9474 17.9944 20.0707 17.6007 18.1918 17.207C18.0962 17.1845 18.0005 17.162 17.8961 17.1395C17.5569 17.057 17.1655 16.967 16.748 17.012C16.6262 17.027 16.5219 17.0645 16.4262 17.117L16.3218 17.192C16.1566 17.3269 16.0696 17.4994 16.0261 17.5969L16 17.6569V18.0018L16.0174 18.0543C17.8026 22.367 19.6223 26.7264 21.4135 31.0177L21.4137 31.018L21.4137 31.018L21.4139 31.0185C22.005 32.4346 22.593 33.8433 23.1757 35.2405C23.7059 36.5107 24.2421 37.7945 24.7814 39.0857L24.7939 39.1157L24.7982 39.1259L24.801 39.1326C26.0955 42.2319 27.4079 45.3739 28.6987 48.4751C28.8118 48.7751 29.1336 48.97 29.5337 49H29.6207C29.9947 49 30.3252 48.8425 30.4905 48.5876L37.3791 39.927C38.2184 38.8735 39.0578 37.8181 39.8971 36.7627C40.7365 35.7073 41.5758 34.6519 42.4151 33.5984C42.7587 33.1672 43.1022 32.7342 43.4458 32.3012C43.7894 31.8681 44.1329 31.4351 44.4765 31.0039L44.6178 30.8259C45.7042 29.457 46.8208 28.05 47.9295 26.6774L47.9904 26.6024V26.5124C48.0165 26.25 48.0252 25.7101 47.5207 25.4252ZM39.4492 28.5821C38.8456 28.8535 38.2371 29.128 37.6252 29.4041C36.597 29.868 35.559 30.3363 34.5176 30.8016L35.9701 29.4594L37.4226 28.1172C38.4757 27.1375 39.5683 26.1294 40.6488 25.1325L41.1279 24.6905L41.154 24.668C41.2583 24.548 41.3888 24.4355 41.528 24.3156C41.5516 24.2952 41.5758 24.2748 41.6003 24.2541C41.6747 24.1914 41.7517 24.1265 41.8237 24.0531C42.4673 24.4355 43.1197 24.8254 43.7459 25.2079C44.1982 25.4853 44.6592 25.7627 45.1289 26.0402C43.2153 26.88 41.3018 27.7423 39.4492 28.5821ZM31.4824 31.7535C32.761 30.5762 34.0483 29.384 35.2921 28.2218L36.388 27.2062L36.3894 27.2049C37.6768 26.0116 38.9877 24.7966 40.2933 23.5953C37.7711 23.0667 35.2467 22.5381 32.7223 22.0095C30.1976 21.4808 27.673 20.9521 25.1505 20.4235C24.2546 20.2285 23.3413 20.041 22.4629 19.8611C21.4626 19.6586 20.445 19.4487 19.436 19.2237C19.4878 19.2777 19.5395 19.331 19.591 19.384C19.7039 19.5002 19.8156 19.6151 19.9231 19.7336C20.0012 19.8154 20.0793 19.8987 20.1577 19.9823L20.1577 19.9823L20.1578 19.9823C20.3238 20.1594 20.4911 20.3379 20.6624 20.5059L20.6711 20.5134C21.2276 21.0907 21.7863 21.6698 22.345 22.2489C22.904 22.8283 23.463 23.4077 24.0198 23.9852C26.4725 26.5271 29.0036 29.1591 31.4824 31.7535ZM30.9965 42.1808L30.9966 42.18C31.0679 41.6028 31.14 41.0193 31.203 40.4437C31.2291 40.2313 31.2552 40.0172 31.2813 39.8031C31.3335 39.3748 31.3857 38.9465 31.4379 38.5316L31.4929 38.0825C31.598 37.2257 31.7057 36.3484 31.7945 35.4873L31.8206 35.3073C31.9075 34.6624 31.9945 33.9951 32.0467 33.3277C32.1424 33.2827 32.2468 33.2377 32.3598 33.2003C32.3924 33.1871 32.4251 33.1745 32.4577 33.1618C32.5555 33.1239 32.6534 33.0859 32.7512 33.0353C34.7604 32.128 36.7696 31.2207 38.7875 30.3209C40.7967 29.4211 42.858 28.4913 44.902 27.569C43.0407 29.8935 41.1707 32.2405 39.3615 34.5275C39.0264 34.9487 38.6893 35.3728 38.3506 35.7987L38.3415 35.8102L38.3401 35.8119C37.1089 37.3605 35.8581 38.9337 34.6125 40.4887C34.2585 40.9381 33.896 41.3923 33.5363 41.8431L33.5362 41.8432C33.2597 42.1897 32.9848 42.5343 32.7164 42.8731C32.0206 43.7429 31.3074 44.6352 30.6116 45.5276C30.6986 44.6277 30.8029 43.7204 30.916 42.8356C30.9423 42.6188 30.9694 42.4003 30.9965 42.1808ZM18.6768 20.724C18.7155 20.8148 18.7542 20.9056 18.7918 20.9956C20.7577 25.7149 22.7235 30.4275 24.6893 35.1401C25.672 37.4959 26.6548 39.8518 27.6375 42.2085L28.5681 44.4355C28.6899 44.7429 28.8204 45.0578 28.9508 45.3578C28.9676 45.3982 28.9856 45.4397 29.0039 45.4819C29.0332 45.5493 29.0633 45.6185 29.09 45.6877C29.1255 45.4019 29.1593 45.116 29.1928 44.8316C29.2332 44.4892 29.2734 44.1489 29.3162 43.8131C29.3321 43.6833 29.3482 43.5532 29.3642 43.4228C29.532 42.0611 29.7038 40.6664 29.8467 39.2841L29.8554 39.2316C29.8554 39.2316 29.9946 38.1968 30.0555 37.7395C30.0653 37.6645 30.0757 37.5892 30.086 37.5135C30.1213 37.2562 30.1571 36.9955 30.1772 36.7347V36.7272C30.2468 36.1948 30.3077 35.6699 30.3686 35.145C30.4071 34.8433 30.4442 34.5366 30.4816 34.2276C30.5371 33.7687 30.5932 33.3045 30.6556 32.843C30.4178 32.6158 30.1942 32.3804 29.9743 32.149C29.8967 32.0672 29.8195 31.986 29.7423 31.9057C29.5162 31.6658 29.2814 31.4183 29.0465 31.1859C28.2521 30.3561 27.4577 29.5329 26.6633 28.7098C26.2661 28.2982 25.8689 27.8866 25.4717 27.4742C23.1668 25.0897 20.801 22.6303 18.4526 20.1858C18.5222 20.3608 18.5995 20.5424 18.6768 20.724Z"
          fill="#EC0927"/>
</svg>
