<svg width="64" height="64" viewBox="0 0 64 64" fill="none" xmlns="http://www.w3.org/2000/svg">
    <circle cx="32" cy="32" r="32" fill="#1A1A1A"/>
    <path fill-rule="evenodd" clip-rule="evenodd"
          d="M22.7368 16C19.0162 16 16 19.0162 16 22.7368V34.9474C16 36.9282 16.8549 38.7092 18.2159 39.9421L24.5357 46.2619L29.1133 41.6842H34.9474C38.668 41.6842 41.6842 38.668 41.6842 34.9474V29.1133L46.2676 24.5298L39.764 18.0262L39.7638 18.0265C38.5406 16.7761 36.8347 16 34.9474 16H22.7368Z"
          fill="#080A28"/>
    <path d="M22.3159 29.0528C22.3159 25.3321 25.3321 22.3159 29.0528 22.3159H41.2632C44.9839 22.3159 48.0001 25.3321 48.0001 29.0528V41.2633C48.0001 44.9839 44.9839 48.0002 41.2632 48.0002H29.0528C25.3321 48.0002 22.3159 44.9839 22.3159 41.2633V29.0528Z"
          fill="#0066FF"/>
    <path d="M22.3154 27.7896C22.3154 24.7666 24.7661 22.3159 27.7891 22.3159H41.6838V36.2106C41.6838 39.2336 39.2331 41.6843 36.2102 41.6843H22.3154V27.7896Z"
          fill="white"/>
    <path d="M28.9572 35.0427C26.8385 32.9239 26.8385 29.4873 28.9572 27.3685L36.6313 35.0427C34.5126 37.1613 31.0759 37.1613 28.9572 35.0427Z"
          fill="#080A28"/>
</svg>
